<svg width="129" height="15" viewBox="0 0 129 15" fill="none" xmlns="http://www.w3.org/2000/svg">
<path d="M0 4.4593C0 4.39771 0.030043 4.34159 0.0804906 4.30626L6.11708 0.0790647C6.18408 0.0321517 6.27366 0.0337157 6.33897 0.0829388L11.2485 3.78287C11.3459 3.85629 11.3492 4.00146 11.2551 4.07916L9.81822 5.26615C9.75062 5.32199 9.65347 5.32394 9.58369 5.27084L6.33769 2.80106C6.27304 2.75186 6.18417 2.74955 6.11704 2.79532L2.15891 5.49404C2.10734 5.52921 2.07648 5.58759 2.07648 5.65001V10.8149C2.07648 10.9191 2.16099 11.0036 2.26525 11.0036H6.35344C6.39542 11.0036 6.4362 10.9896 6.46933 10.9639L8.88728 9.08323C8.94403 9.03909 8.91282 8.94812 8.84093 8.94812H6.98452C6.88026 8.94812 6.79575 8.8636 6.79575 8.75935V7.24918C6.79575 7.14492 6.88026 7.06041 6.98452 7.06041H12.1205C12.2247 7.06041 12.3093 7.14492 12.3093 7.24918V12.8913C12.3093 12.9956 12.2247 13.0801 12.1205 13.0801H10.4299C10.3256 13.0801 10.2411 12.9956 10.2411 12.8913V10.706C10.2411 10.6422 10.1667 10.6071 10.1175 10.6478L7.22563 13.0369C7.1918 13.0648 7.14928 13.0801 7.1054 13.0801H0.188771C0.0845157 13.0801 0 12.999 0 12.8948C0 11.909 0 7.22248 0 4.4593Z" fill="#181C1F"/>
<path d="M23.0719 13.0801C18.6152 13.0801 16.9894 10.3121 16.9894 7.12516C16.9894 3.93826 18.3108 0.465873 23.3269 0.465873C27.1329 0.465873 28.767 2.6827 28.767 4.41761H26.3499C26.2224 3.48397 25.6214 2.57023 23.3269 2.57023C20.0097 2.57023 19.2546 4.73954 19.2546 7.12516C19.2546 9.51077 20.1085 11.0272 23.1812 11.0272C25.4029 11.0272 26.0816 9.48147 26.0816 8.98844H23.1812V7.10073H28.8217V12.9526H26.8052V11.1497C26.1131 12.3152 25.0023 13.0801 23.0719 13.0801Z" fill="#181C1F"/>
<path d="M33.6073 13.0188C30.5297 13.0188 29.9287 11.3252 29.9287 8.68462V3.66253H32.2184V8.83031C32.2184 10.5057 32.9055 11.0023 34.1536 11.0023C35.3653 11.0023 36.1617 10.4329 36.1617 8.73925V3.66253H38.506V12.8913H36.4328V11.5437C36.0868 12.2175 35.7016 13.0188 33.6073 13.0188Z" fill="#181C1F"/>
<path d="M45.283 12.9642C42.2053 13.1463 40.9124 12.4178 40.9124 10.2143V5.51105H39.583V3.66253H40.9124V0.453424H43.1838V3.66253H46.0381L45.283 5.51105H43.2385V10.2143C43.2385 11.0884 44.0167 11.1115 45.283 11.0205V12.9642Z" fill="#181C1F"/>
<path d="M49.5434 13.0188C47.5402 13.0188 46.229 11.8378 46.229 9.87099C46.229 8.15918 47.1927 7.24917 49.7304 7.24917C51.0707 7.24917 52.371 7.24917 52.371 7.24917C52.3163 6.097 51.912 5.55024 50.704 5.51105C49.8355 5.48287 48.8917 5.73901 48.8917 6.47312H46.809C46.809 4.92031 47.7854 3.66253 50.6858 3.66253C53.7368 3.66253 54.7436 5.07888 54.7436 7.59197V12.8913H52.6671V11.4891C52.23 12.2175 51.4738 13.0188 49.5434 13.0188ZM48.3253 9.87099C48.3253 10.7269 49.0468 11.0205 50.0351 11.0205C51.1557 11.0205 52.371 10.6505 52.371 9.02974V8.73837C52.371 8.73837 51.1569 8.73837 50.1079 8.73837C48.8917 8.73837 48.3253 9.14256 48.3253 9.87099Z" fill="#181C1F"/>
<path d="M60.4188 13.0188C56.7402 13.0188 56.1063 11.1043 55.9638 8.60689C55.8135 5.9719 56.7766 3.66253 60.3824 3.66253C63.2233 3.66253 64.4841 4.91819 64.4841 7.24917H62.3859C62.2584 6.18806 61.5771 5.73901 60.4067 5.73901C58.781 5.73901 58.3263 6.78581 58.3263 8.58868C58.3263 9.97759 59.0614 10.9659 60.3642 10.9659C61.5345 10.9659 62.2584 10.5785 62.3859 9.60849H64.4841C64.4841 11.5255 63.2779 13.0188 60.4188 13.0188Z" fill="#181C1F"/>
<path d="M65.5453 12.8913V0.453424H67.835V4.73287C68.1992 4.05907 69.0187 3.66253 70.4258 3.66253C73.467 3.66253 74.0862 5.16993 74.0862 7.84692V12.8913H71.7783V7.66481C71.7783 6.67166 71.4869 5.45642 69.8795 5.45642C68.6678 5.45642 67.8714 5.89836 67.8714 7.66481L67.835 12.8913H65.5453Z" fill="#181C1F"/>
<path d="M85.6099 13.0188C81.8584 13.0188 80.9297 10.706 80.9297 8.21114C80.9297 5.71625 82.3645 3.66253 85.3244 3.66253C88.3887 3.66253 89.7983 5.55024 89.4208 8.73837H83.3286C83.3286 10.4583 84.1918 10.9659 85.702 10.9659C86.6458 10.9659 87.2121 10.647 87.3812 10.0322H89.4208C89.2569 11.6166 88.156 13.0188 85.6099 13.0188ZM83.3468 7.24917H87.2121C87.2303 6.35196 86.622 5.51105 85.3244 5.51105C84.2584 5.51105 83.4379 5.88336 83.3468 7.24917Z" fill="#181C1F"/>
<path d="M100.237 12.8913V10.6696H102.899V12.8913H100.237Z" fill="#181C1F"/>
<path d="M108.181 13.0188C104.521 13.0188 103.574 10.706 103.574 8.22935C103.574 5.77089 104.539 3.4399 108.199 3.4399C111.823 3.4399 112.825 5.77089 112.825 8.22935C112.825 10.7242 111.823 13.0188 108.181 13.0188ZM105.936 8.22935C105.936 9.61826 106.41 11.0246 108.181 11.0246C109.989 11.0246 110.462 9.65468 110.462 8.22935C110.462 6.87686 110.025 5.46931 108.199 5.46931C106.41 5.46931 105.936 6.85865 105.936 8.22935Z" fill="#181C1F"/>
<path d="M113.995 12.8913V3.4399H116.094V4.86035C116.659 3.65843 117.146 3.33064 118.803 3.4399V5.46931C116.849 5.46931 116.321 5.7891 116.321 7.9744V12.8913H113.995Z" fill="#181C1F"/>
<path d="M125.721 14.0449C125.721 13.4531 125.478 13.2266 123.834 13.2898C120.518 13.4173 118.926 13.2313 118.926 11.2134C118.926 10.3575 119.618 9.54053 120.656 9.30379C119.599 8.75746 119.253 7.88334 119.253 6.82711C119.253 3.56738 122.604 3.4399 123.824 3.4399H128.213V5.46931H126.76C127.138 5.65808 127.649 6.14843 127.649 7.10028C127.649 8.79388 126.884 10.0869 123.569 10.1779C121.639 10.2325 121.312 10.6013 121.38 11.0246C121.494 11.7387 122.986 11.2915 123.843 11.2134C125.91 11.0246 128.364 11.3347 128.364 14.0449H125.721ZM121.616 6.95459C121.616 7.61507 122.376 8.19303 123.442 8.19303C124.453 8.19303 125.25 7.65149 125.25 6.89996C125.25 6.2759 124.885 5.46931 123.442 5.46931C122.017 5.46931 121.616 6.25769 121.616 6.95459Z" fill="#181C1F"/>
<path d="M80.4164 12.9642C77.3388 13.1463 76.0458 12.4178 76.0458 10.2143V5.51105H74.7164V3.66253H76.0458V0.453424H78.3173V3.66253H81.1715L80.4164 5.51105H78.3719V10.2143C78.3719 11.0884 79.1501 11.1115 80.4164 11.0205V12.9642Z" fill="#181C1F"/>
<path d="M95.5087 3.66253C98.2088 3.66253 99.1873 5.14639 99.1873 7.78696V12.9042H96.8976V7.64128C96.8976 5.96588 96.2105 5.46931 94.9624 5.46931C93.7507 5.46931 92.9543 6.03873 92.9543 7.73233V12.9042L90.61 12.9042V3.58026H92.6832V4.92787C93.0293 4.25407 93.4145 3.66253 95.5087 3.66253Z" fill="#181C1F"/>
</svg>
