<svg width="461" height="55" viewBox="0 0 461 55" fill="none" xmlns="http://www.w3.org/2000/svg">
<path d="M4.93177 18.3717C4.93177 18.1153 5.05816 17.8818 5.27039 17.7347L30.6656 0.142095C30.9474 -0.0531467 31.3243 -0.0466374 31.5991 0.158218L52.2528 15.5565C52.6627 15.8621 52.6763 16.4662 52.2807 16.7896L46.2359 21.7296C45.9515 21.962 45.5428 21.9701 45.2492 21.7491L31.5937 11.4704C31.3217 11.2657 30.9478 11.2561 30.6655 11.4465L14.014 22.678C13.7971 22.8244 13.6673 23.0673 13.6673 23.3271V44.822C13.6673 45.2559 14.0228 45.6077 14.4614 45.6077H31.6599C31.8365 45.6077 32.0081 45.5494 32.1475 45.4422L42.3195 37.6154C42.5583 37.4317 42.4269 37.0531 42.1245 37.0531H34.3148C33.8762 37.0531 33.5207 36.7014 33.5207 36.2675V29.9825C33.5207 29.5486 33.8762 29.1969 34.3148 29.1969H55.9212C56.3598 29.1969 56.7154 29.5486 56.7154 29.9825V53.4639C56.7154 53.8977 56.3598 54.2495 55.9212 54.2495H48.809C48.3704 54.2495 48.0148 53.8978 48.0148 53.4639V44.3691C48.0148 44.1033 47.702 43.9575 47.4949 44.1268L35.3291 54.0695C35.1868 54.1859 35.008 54.2495 34.8233 54.2495H5.72591C5.28732 54.2495 4.93177 53.912 4.93177 53.4781C4.93177 49.3755 4.93177 29.8714 4.93177 18.3717Z" fill="#F8FAFB" style="fill:#F8FAFB;fill:color(display-p3 0.9725 0.9804 0.9843);fill-opacity:1;"/>
<path d="M94.9905 51.236C81.4001 51.236 76.4425 42.5899 76.4425 32.6356C76.4425 22.6813 80.4719 11.8353 95.768 11.8353C107.374 11.8353 112.357 18.7595 112.357 24.1786H104.986C104.598 21.2623 102.765 18.4083 95.768 18.4083C85.6526 18.4083 83.3501 25.1841 83.3501 32.6356C83.3501 40.0871 85.9537 44.8236 95.3237 44.8236C102.099 44.8236 104.168 39.9956 104.168 38.4556H95.3237V32.5593H112.524V50.8378H106.375V45.2065C104.264 48.8469 100.877 51.236 94.9905 51.236Z" fill="#F8FAFB" style="fill:#F8FAFB;fill:color(display-p3 0.9725 0.9804 0.9843);fill-opacity:1;"/>
<path d="M127.117 51.0445C117.732 51.0445 115.9 45.7545 115.9 37.5066V21.8201H122.882V37.9617C122.882 43.1948 124.977 44.7459 128.783 44.7459C132.478 44.7459 134.906 42.9673 134.906 37.6773V21.8201H142.055V50.6463H135.733V46.4371C134.678 48.5417 133.503 51.0445 127.117 51.0445Z" fill="#F8FAFB" style="fill:#F8FAFB;fill:color(display-p3 0.9725 0.9804 0.9843);fill-opacity:1;"/>
<path d="M162.721 50.8739C153.336 51.4427 149.393 49.1674 149.393 42.2847V27.5939H145.339V21.8201H149.393V11.7964H156.32V21.8201H165.023L162.721 27.5939H156.486V42.2847C156.486 45.015 158.859 45.0872 162.721 44.8028V50.8739Z" fill="#F8FAFB" style="fill:#F8FAFB;fill:color(display-p3 0.9725 0.9804 0.9843);fill-opacity:1;"/>
<path d="M175.713 51.0445C169.604 51.0445 165.606 47.3555 165.606 41.2123C165.606 35.8654 168.544 33.023 176.283 33.023C180.37 33.023 184.335 33.023 184.335 33.023C184.168 29.4242 182.935 27.7163 179.252 27.5939C176.603 27.5059 173.725 28.306 173.725 30.599H167.374C167.374 25.7488 170.352 21.8201 179.196 21.8201C188.5 21.8201 191.57 26.244 191.57 34.0937V50.6463H185.238V46.2664C183.905 48.5417 181.599 51.0445 175.713 51.0445ZM171.998 41.2123C171.998 43.8857 174.198 44.8028 177.212 44.8028C180.629 44.8028 184.335 43.6471 184.335 38.5846V37.6745C184.335 37.6745 180.633 37.6745 177.434 37.6745C173.725 37.6745 171.998 38.937 171.998 41.2123Z" fill="#F8FAFB" style="fill:#F8FAFB;fill:color(display-p3 0.9725 0.9804 0.9843);fill-opacity:1;"/>
<path d="M208.876 51.0445C197.658 51.0445 195.725 45.0646 195.291 37.2638C194.833 29.0334 197.769 21.8201 208.765 21.8201C217.428 21.8201 221.273 25.7421 221.273 33.023H214.874C214.486 29.7086 212.408 28.306 208.839 28.306C203.882 28.306 202.495 31.5757 202.495 37.207C202.495 41.5452 204.737 44.6321 208.709 44.6321C212.278 44.6321 214.486 43.4223 214.874 40.3923H221.273C221.273 46.3802 217.594 51.0445 208.876 51.0445Z" fill="#F8FAFB" style="fill:#F8FAFB;fill:color(display-p3 0.9725 0.9804 0.9843);fill-opacity:1;"/>
<path d="M224.509 50.6463V11.7964H231.491V25.1633C232.601 23.0587 235.1 21.8201 239.391 21.8201C248.665 21.8201 250.553 26.5285 250.553 34.8901V50.6463H243.516V34.3213C243.516 31.2191 242.627 27.4233 237.725 27.4233C234.03 27.4233 231.602 28.8037 231.602 34.3213L231.491 50.6463H224.509Z" fill="#F8FAFB" style="fill:#F8FAFB;fill:color(display-p3 0.9725 0.9804 0.9843);fill-opacity:1;"/>
<path d="M285.693 51.0445C274.254 51.0445 271.422 43.8205 271.422 36.0277C271.422 28.2349 275.797 21.8201 284.823 21.8201C294.167 21.8201 298.466 27.7163 297.315 37.6745H278.737C278.737 43.0467 281.369 44.6321 285.974 44.6321C288.852 44.6321 290.579 43.6363 291.095 41.7159H297.315C296.815 46.6646 293.458 51.0445 285.693 51.0445ZM278.793 33.023H290.579C290.635 30.2205 288.78 27.5939 284.823 27.5939C281.572 27.5939 279.07 28.7569 278.793 33.023Z" fill="#F8FAFB" style="fill:#F8FAFB;fill:color(display-p3 0.9725 0.9804 0.9843);fill-opacity:1;"/>
<path d="M330.298 50.6463V43.7067H338.413V50.6463H330.298Z" fill="#F8FAFB" style="fill:#F8FAFB;fill:color(display-p3 0.9725 0.9804 0.9843);fill-opacity:1;"/>
<path d="M354.522 51.0445C343.36 51.0445 340.472 43.8205 340.472 36.0846C340.472 28.4056 343.416 21.1247 354.578 21.1247C365.628 21.1247 368.683 28.4056 368.683 36.0846C368.683 43.8774 365.628 51.0445 354.522 51.0445ZM347.677 36.0846C347.677 40.4229 349.121 44.8156 354.522 44.8156C360.035 44.8156 361.478 40.5366 361.478 36.0846C361.478 31.8601 360.146 27.4636 354.578 27.4636C349.121 27.4636 347.677 31.8032 347.677 36.0846Z" fill="#F8FAFB" style="fill:#F8FAFB;fill:color(display-p3 0.9725 0.9804 0.9843);fill-opacity:1;"/>
<path d="M372.252 50.6463V21.1247H378.652V25.5615C380.373 21.8073 381.859 20.7834 386.912 21.1247V27.4636C380.954 27.4636 379.345 28.4624 379.345 35.2882V50.6463H372.252Z" fill="#F8FAFB" style="fill:#F8FAFB;fill:color(display-p3 0.9725 0.9804 0.9843);fill-opacity:1;"/>
<path d="M408.009 54.2496C408.009 52.4011 407.268 51.6936 402.253 51.8911C392.142 52.2893 387.286 51.7083 387.286 45.4052C387.286 42.7317 389.397 40.1801 392.562 39.4406C389.341 37.7342 388.286 35.0038 388.286 31.7047C388.286 21.5229 398.504 21.1247 402.224 21.1247H415.608V27.4636H411.177C412.328 28.0532 413.886 29.5848 413.886 32.5579C413.886 37.8479 411.554 41.8865 401.447 42.1709C395.561 42.3416 394.563 43.4933 394.77 44.8156C395.118 47.0462 399.669 45.6494 402.28 45.4052C408.585 44.8156 416.068 45.7842 416.068 54.2496H408.009ZM395.49 32.1029C395.49 34.1659 397.808 35.9711 401.058 35.9711C404.142 35.9711 406.571 34.2796 406.571 31.9322C406.571 29.983 405.46 27.4636 401.058 27.4636C396.712 27.4636 395.49 29.9261 395.49 32.1029Z" fill="#F8FAFB" style="fill:#F8FAFB;fill:color(display-p3 0.9725 0.9804 0.9843);fill-opacity:1;"/>
<path d="M269.856 50.8739C260.472 51.4427 256.529 49.1674 256.529 42.2847V27.5939H252.475V21.8201H256.529V11.7964H263.455V21.8201H272.159L269.856 27.5939H263.622V42.2847C263.622 45.015 265.995 45.0872 269.856 44.8028V50.8739Z" fill="#F8FAFB" style="fill:#F8FAFB;fill:color(display-p3 0.9725 0.9804 0.9843);fill-opacity:1;"/>
<path d="M315.879 21.8201C324.113 21.8201 327.096 26.4549 327.096 34.7028V50.6866H320.114V34.2477C320.114 29.0146 318.019 27.4636 314.213 27.4636C310.518 27.4636 308.09 29.2422 308.09 34.5322V50.6866L300.941 50.6866V21.5631H307.263V25.7724C308.318 23.6677 309.493 21.8201 315.879 21.8201Z" fill="#F8FAFB" style="fill:#F8FAFB;fill:color(display-p3 0.9725 0.9804 0.9843);fill-opacity:1;"/>
</svg>
