<svg width="32" height="32" viewBox="0 0 32 32" fill="none" xmlns="http://www.w3.org/2000/svg">
<path fill-rule="evenodd" clip-rule="evenodd" d="M20.5572 7.52466C20.3734 7.23085 20.1024 7.00167 19.7822 6.86904C19.462 6.7364 19.1084 6.70691 18.7706 6.78466L16.3732 7.33533C16.1276 7.3918 15.8723 7.3918 15.6266 7.33533L13.2292 6.78466C12.8915 6.70691 12.5378 6.7364 12.2176 6.86904C11.8974 7.00167 11.6265 7.23085 11.4426 7.52466L10.1359 9.61C10.0026 9.82333 9.82257 10.0033 9.60924 10.138L7.52391 11.4447C7.2306 11.6284 7.00176 11.8989 6.86915 12.2185C6.73655 12.5382 6.70675 12.8913 6.78391 13.2287L7.33457 15.6287C7.39084 15.8739 7.39084 16.1287 7.33457 16.374L6.78391 18.7727C6.70645 19.1102 6.7361 19.4636 6.86872 19.7835C7.00134 20.1035 7.23034 20.3742 7.52391 20.558L9.60924 21.8647C9.82257 21.998 10.0026 22.178 10.1372 22.3913L11.4439 24.4767C11.8199 25.078 12.5372 25.3753 13.2292 25.2167L15.6266 24.666C15.8723 24.6095 16.1276 24.6095 16.3732 24.666L18.7719 25.2167C19.1095 25.2941 19.4628 25.2645 19.7828 25.1319C20.1027 24.9992 20.3734 24.7702 20.5572 24.4767L21.8639 22.3913C21.9972 22.178 22.1772 21.998 22.3906 21.8647L24.4772 20.558C24.7708 20.3739 24.9997 20.1029 25.1321 19.7827C25.2645 19.4625 25.2938 19.109 25.2159 18.7713L24.6666 16.374C24.6101 16.1283 24.6101 15.873 24.6666 15.6273L25.2172 13.2287C25.2948 12.8912 25.2654 12.538 25.133 12.218C25.0006 11.8981 24.7719 11.6273 24.4786 11.4433L22.3919 10.1367C22.1789 10.0031 21.9988 9.82303 21.8652 9.61L20.5572 7.52466ZM19.8866 13.0273C19.969 12.8757 19.9895 12.698 19.9436 12.5316C19.8977 12.3652 19.789 12.223 19.6405 12.1351C19.4919 12.0472 19.3151 12.0203 19.1471 12.0602C18.9791 12.1 18.8332 12.2034 18.7399 12.3487L15.2532 18.25L13.1479 16.234C13.0854 16.1699 13.0107 16.119 12.9282 16.0843C12.8456 16.0497 12.7569 16.0321 12.6674 16.0325C12.5779 16.0329 12.4894 16.0513 12.4071 16.0866C12.3249 16.122 12.2506 16.1735 12.1887 16.2382C12.1268 16.3029 12.0786 16.3793 12.0468 16.463C12.0151 16.5468 12.0006 16.636 12.0042 16.7255C12.0077 16.8149 12.0292 16.9027 12.0674 16.9837C12.1056 17.0646 12.1598 17.1371 12.2266 17.1967L14.9386 19.7953C15.0112 19.8647 15.0985 19.9168 15.194 19.9478C15.2896 19.9787 15.3909 19.9876 15.4904 19.9739C15.5899 19.9602 15.685 19.9242 15.7686 19.8685C15.8522 19.8129 15.9221 19.7391 15.9732 19.6527L19.8866 13.0273Z" fill="#00A36F" style="fill:#00A36F;fill:color(display-p3 0.0000 0.6384 0.4363);fill-opacity:1;"/>
</svg>
