<svg width="16" height="16" viewBox="0 0 16 16" fill="none" xmlns="http://www.w3.org/2000/svg">
<path d="M6.93799 8.83985H1.87402C1.73595 8.83985 1.62402 8.95178 1.62402 9.08985V11.1386C1.62402 11.2767 1.73595 11.3886 1.87402 11.3886H7.91542C7.97246 11.3886 8.02772 11.3698 8.07169 11.3355L11.8306 8.4031C11.8946 8.35317 11.9913 8.39616 11.9913 8.47455V11.1569C11.9913 11.2849 12.1012 11.3886 12.2367 11.3886H14.4342C14.5697 11.3886 14.6796 11.2849 14.6796 11.1569V4.23146C14.6796 4.10349 14.5697 3.99976 14.4342 3.99976H7.75829C7.62278 3.99976 7.51292 4.10349 7.51292 4.23146V6.08512C7.51292 6.21308 7.62278 6.31682 7.75829 6.31682H10.1713C10.2648 6.31682 10.3053 6.42848 10.2316 6.48266L7.08863 8.79104C7.04556 8.82267 6.99256 8.83985 6.93799 8.83985Z" fill="#FF985C" style="fill:#FF985C;fill:color(display-p3 1.0000 0.5947 0.3600);fill-opacity:1;"/>
</svg>
