<svg width="340" height="43" viewBox="0 0 340 43" fill="none" xmlns="http://www.w3.org/2000/svg">
<path d="M18.5481 39.4396C4.95761 39.4396 0 30.7936 0 20.8392C0 10.8849 4.02946 0.0388852 19.3255 0.0388852C30.9317 0.0388852 35.9147 6.96316 35.9147 12.3822H28.5438C28.1551 9.46596 26.3225 6.61189 19.3255 6.61189C9.21019 6.61189 6.90765 13.3877 6.90765 20.8392C6.90765 28.2908 9.51124 33.0272 18.8813 33.0272C25.6562 33.0272 27.7257 28.1992 27.7257 26.6592H18.8813V20.763H36.0813V39.0414H29.9321V33.4101C27.8219 37.0505 24.4345 39.4396 18.5481 39.4396Z" fill="#F8FAFB" style="fill:#F8FAFB;fill:color(display-p3 0.9725 0.9804 0.9843);fill-opacity:1;"/>
<path d="M50.6746 39.2481C41.2897 39.2481 39.4572 33.9581 39.4572 25.7102V10.0237H46.4393V26.1653C46.4393 31.3984 48.5346 32.9495 52.3406 32.9495C56.0355 32.9495 58.464 31.1709 58.464 25.8809V10.0237H65.6128V38.8499H59.2906V34.6407C58.2355 36.7453 57.0608 39.2481 50.6746 39.2481Z" fill="#F8FAFB" style="fill:#F8FAFB;fill:color(display-p3 0.9725 0.9804 0.9843);fill-opacity:1;"/>
<path d="M86.2783 39.0775C76.8934 39.6463 72.9507 37.371 72.9507 30.4883V15.7976H68.8968V10.0237H72.9507V0H79.8773V10.0237H88.5809L86.2783 15.7976H80.0438V30.4883C80.0438 33.2186 82.4168 33.2908 86.2783 33.0064V39.0775Z" fill="#F8FAFB" style="fill:#F8FAFB;fill:color(display-p3 0.9725 0.9804 0.9843);fill-opacity:1;"/>
<path d="M99.2701 39.2481C93.1616 39.2481 89.1633 35.5591 89.1633 29.4159C89.1633 24.069 92.1019 21.2266 99.8403 21.2266C103.928 21.2266 107.892 21.2266 107.892 21.2266C107.726 17.6278 106.493 15.92 102.809 15.7976C100.161 15.7096 97.2827 16.5096 97.2827 18.8026H90.9317C90.9317 13.9524 93.9092 10.0237 102.754 10.0237C112.057 10.0237 115.127 14.4477 115.127 22.2973V38.8499H108.795V34.47C107.463 36.7453 105.156 39.2481 99.2701 39.2481ZM95.5557 29.4159C95.5557 32.0894 97.7558 33.0064 100.769 33.0064C104.187 33.0064 107.892 31.8507 107.892 26.7883V25.8781C107.892 25.8781 104.19 25.8781 100.992 25.8781C97.2826 25.8781 95.5557 27.1406 95.5557 29.4159Z" fill="#F8FAFB" style="fill:#F8FAFB;fill:color(display-p3 0.9725 0.9804 0.9843);fill-opacity:1;"/>
<path d="M132.433 39.2481C121.216 39.2481 119.283 33.2682 118.848 25.4675C118.39 17.237 121.327 10.0237 132.322 10.0237C140.985 10.0237 144.83 13.9457 144.83 21.2266H138.432C138.043 17.9122 135.965 16.5096 132.397 16.5096C127.439 16.5096 126.053 19.7793 126.053 25.4106C126.053 29.7489 128.294 32.8357 132.267 32.8357C135.836 32.8357 138.043 31.626 138.432 28.596H144.83C144.83 34.5838 141.152 39.2481 132.433 39.2481Z" fill="#F8FAFB" style="fill:#F8FAFB;fill:color(display-p3 0.9725 0.9804 0.9843);fill-opacity:1;"/>
<path d="M148.066 38.8499V0H155.048V13.3669C156.159 11.2623 158.658 10.0237 162.949 10.0237C172.223 10.0237 174.111 14.7321 174.111 23.0937V38.8499H167.073V22.5249C167.073 19.4227 166.185 15.6269 161.283 15.6269C157.588 15.6269 155.159 17.0073 155.159 22.5249L155.048 38.8499H148.066Z" fill="#F8FAFB" style="fill:#F8FAFB;fill:color(display-p3 0.9725 0.9804 0.9843);fill-opacity:1;"/>
<path d="M209.251 39.2481C197.811 39.2481 194.979 32.0241 194.979 24.2313C194.979 16.4385 199.355 10.0237 208.381 10.0237C217.725 10.0237 222.023 15.92 220.872 25.8781H202.295C202.295 31.2503 204.927 32.8357 209.532 32.8357C212.41 32.8357 214.137 31.8399 214.652 29.9195H220.872C220.372 34.8682 217.015 39.2481 209.251 39.2481ZM202.35 21.2266H214.137C214.192 18.4241 212.337 15.7976 208.381 15.7976C205.13 15.7976 202.628 16.9605 202.35 21.2266Z" fill="#F8FAFB" style="fill:#F8FAFB;fill:color(display-p3 0.9725 0.9804 0.9843);fill-opacity:1;"/>
<path d="M253.856 38.8499V31.9104H261.971V38.8499H253.856Z" fill="#F8FAFB" style="fill:#F8FAFB;fill:color(display-p3 0.9725 0.9804 0.9843);fill-opacity:1;"/>
<path d="M278.08 39.2481C266.918 39.2481 264.03 32.0241 264.03 24.2882C264.03 16.6092 266.973 9.3283 278.135 9.3283C289.186 9.3283 292.24 16.6092 292.24 24.2882C292.24 32.081 289.186 39.2481 278.08 39.2481ZM271.234 24.2882C271.234 28.6265 272.678 33.0192 278.08 33.0192C283.592 33.0192 285.036 28.7402 285.036 24.2882C285.036 20.0637 283.703 15.6672 278.135 15.6672C272.678 15.6672 271.234 20.0068 271.234 24.2882Z" fill="#F8FAFB" style="fill:#F8FAFB;fill:color(display-p3 0.9725 0.9804 0.9843);fill-opacity:1;"/>
<path d="M295.809 38.8499V9.3283H302.209V13.7651C303.931 10.0109 305.416 8.98701 310.47 9.3283V15.6672C304.512 15.6672 302.902 16.666 302.902 23.4919V38.8499H295.809Z" fill="#F8FAFB" style="fill:#F8FAFB;fill:color(display-p3 0.9725 0.9804 0.9843);fill-opacity:1;"/>
<path d="M331.567 42.4532C331.567 40.6048 330.826 39.8972 325.811 40.0947C315.7 40.4929 310.844 39.9119 310.844 33.6088C310.844 30.9354 312.954 28.3837 316.119 27.6442C312.899 25.9378 311.843 23.2075 311.843 19.9083C311.843 9.72647 322.061 9.3283 325.782 9.3283H339.165V15.6672H334.734C335.885 16.2568 337.444 17.7884 337.444 20.7615C337.444 26.0515 335.111 30.0901 325.005 30.3746C319.118 30.5452 318.121 31.6969 318.327 33.0192C318.676 35.2498 323.226 33.853 325.838 33.6088C332.143 33.0192 339.626 33.9878 339.626 42.4532H331.567ZM319.048 20.3065C319.048 22.3695 321.365 24.1748 324.616 24.1748C327.7 24.1748 330.128 22.4832 330.128 20.1358C330.128 18.1866 329.018 15.6672 324.616 15.6672C320.269 15.6672 319.048 18.1297 319.048 20.3065Z" fill="#F8FAFB" style="fill:#F8FAFB;fill:color(display-p3 0.9725 0.9804 0.9843);fill-opacity:1;"/>
<path d="M193.414 39.0775C184.029 39.6463 180.086 37.371 180.086 30.4883V15.7976H176.032V10.0237H180.086V0H187.013V10.0237H195.717L193.414 15.7976H187.18V30.4883C187.18 33.2186 189.553 33.2908 193.414 33.0064V39.0775Z" fill="#F8FAFB" style="fill:#F8FAFB;fill:color(display-p3 0.9725 0.9804 0.9843);fill-opacity:1;"/>
<path d="M239.437 10.0237C247.67 10.0237 250.654 14.6586 250.654 22.9064V38.8902H243.672V22.4514C243.672 17.2182 241.577 15.6672 237.771 15.6672C234.076 15.6672 231.647 17.4458 231.647 22.7358V38.8902L224.498 38.8902V9.76672H230.821V13.976C231.876 11.8714 233.05 10.0237 239.437 10.0237Z" fill="#F8FAFB" style="fill:#F8FAFB;fill:color(display-p3 0.9725 0.9804 0.9843);fill-opacity:1;"/>
</svg>
