<svg width="38" height="38" viewBox="0 0 38 38" fill="none" xmlns="http://www.w3.org/2000/svg">
<rect width="38" height="38" fill="#273238" style="fill:#273238;fill:color(display-p3 0.1529 0.1961 0.2196);fill-opacity:1;"/>
<path d="M19 11.6223C21.403 11.6223 21.688 11.6313 22.6375 11.6748C25.0765 11.7858 26.2157 12.943 26.3267 15.364C26.3702 16.3127 26.3785 16.5978 26.3785 19.0008C26.3785 21.4045 26.3695 21.6888 26.3267 22.6375C26.215 25.0563 25.0788 26.2157 22.6375 26.3267C21.688 26.3702 21.4045 26.3793 19 26.3793C16.597 26.3793 16.312 26.3702 15.3633 26.3267C12.9183 26.215 11.785 25.0525 11.674 22.6368C11.6305 21.688 11.6215 21.4037 11.6215 19C11.6215 16.597 11.6313 16.3128 11.674 15.3633C11.7858 12.943 12.922 11.785 15.3633 11.674C16.3128 11.6313 16.597 11.6223 19 11.6223ZM19 10C16.5557 10 16.2497 10.0105 15.2897 10.054C12.0213 10.204 10.2048 12.0175 10.0547 15.289C10.0105 16.2498 10 16.5557 10 19C10 21.4443 10.0105 21.751 10.054 22.711C10.204 25.9795 12.0175 27.796 15.289 27.946C16.2498 27.9895 16.5557 28 19 28C21.4443 28 21.751 27.9895 22.711 27.946C25.9765 27.796 27.7975 25.9825 27.9453 22.711C27.9895 21.751 28 21.4443 28 19C28 16.5557 27.9895 16.2497 27.946 15.2897C27.799 12.0242 25.9832 10.2048 22.7117 10.0547C21.751 10.0105 21.4443 10 19 10ZM19 14.3785C16.4477 14.3785 14.3785 16.4477 14.3785 19C14.3785 21.5523 16.4477 23.6223 19 23.6223C21.5523 23.6223 23.6215 21.553 23.6215 19C23.6215 16.4477 21.5523 14.3785 19 14.3785ZM19 22C17.3432 22 16 20.6575 16 19C16 17.3432 17.3432 16 19 16C20.6568 16 22 17.3432 22 19C22 20.6575 20.6568 22 19 22ZM23.8045 13.1163C23.2075 13.1163 22.7238 13.6 22.7238 14.1962C22.7238 14.7925 23.2075 15.2762 23.8045 15.2762C24.4008 15.2762 24.8837 14.7925 24.8837 14.1962C24.8837 13.6 24.4008 13.1163 23.8045 13.1163Z" fill="white" style="fill:white;fill-opacity:1;"/>
</svg>
