<svg width="24" height="24" viewBox="0 0 24 24" fill="none" xmlns="http://www.w3.org/2000/svg">
<path d="M21 9H3C2.448 9 2 9.448 2 10V21C2 21.552 2.448 22 3 22H21C21.552 22 22 21.552 22 21V10C22 9.448 21.552 9 21 9ZM4 20V17C5.657 17 7 18.343 7 20H4ZM4 14V11H7C7 12.657 5.657 14 4 14ZM12 17C10.895 17 10 16.105 10 15C10 13.895 10.895 13 12 13C13.105 13 14 13.895 14 15C14 16.105 13.105 17 12 17ZM20 20H17C17 18.343 18.343 17 20 17V20ZM20 14C18.343 14 17 12.657 17 11H20V14Z" fill="#804A6E" style="fill:#804A6E;fill:color(display-p3 0.5020 0.2902 0.4300);fill-opacity:1;"/>
<path d="M15.9999 4C16.5519 4 16.9999 3.552 16.9999 3C16.9999 2.448 16.5519 2 15.9999 2C13.9039 2.004 12.1109 3.298 11.3719 5.129L11.3599 5.163C10.3589 3.872 8.80893 3.05 7.06593 3.05C5.91993 3.05 4.85793 3.405 3.98193 4.012L3.99993 4C3.99993 4 5.79293 8.46 11.0599 6.411C11.0299 6.582 11.0089 6.784 10.9999 6.991V7V9H12.9999V7C12.9999 5.343 14.3429 4 15.9999 4Z" fill="#B9BEC1" style="fill:#B9BEC1;fill:color(display-p3 0.7255 0.7451 0.7569);fill-opacity:1;"/>
</svg>
