<svg width="286" height="300" viewBox="0 0 286 300" fill="none" xmlns="http://www.w3.org/2000/svg">
<path d="M0 101.595C0 100.178 0.698035 98.8862 1.87016 98.0732L142.128 0.785785C143.684 -0.293902 145.766 -0.257905 147.283 0.874945L261.354 86.0275C263.617 87.7174 263.692 91.0584 261.507 92.8465L228.122 120.165C226.551 121.45 224.294 121.495 222.673 120.273L147.253 63.4314C145.751 62.2993 143.686 62.2461 142.127 63.2994L50.1612 125.41C48.963 126.219 48.246 127.563 48.246 128.999V247.866C48.246 250.265 50.2097 252.211 52.632 252.211H147.619C148.595 252.211 149.542 251.889 150.312 251.295L206.492 208.013C207.811 206.998 207.085 204.904 205.415 204.904H162.282C159.86 204.904 157.896 202.959 157.896 200.559V165.803C157.896 163.404 159.86 161.459 162.282 161.459H281.614C284.036 161.459 286 163.404 286 165.803V295.655C286 298.055 284.036 300 281.614 300H242.333C239.911 300 237.947 298.055 237.947 295.655V245.361C237.947 243.891 236.219 243.085 235.075 244.022L167.884 299.005C167.098 299.648 166.11 300 165.091 300H4.386C1.96368 300 0 298.134 0 295.734C0 273.047 0 165.189 0 101.595Z" fill="white" style="fill:white;fill-opacity:1;"/>
</svg>
