<svg width="16" height="16" viewBox="0 0 16 16" fill="none" xmlns="http://www.w3.org/2000/svg">
<g clip-path="url(#clip0_129_5341)">
<path fill-rule="evenodd" clip-rule="evenodd" d="M6.51012 0.713997L5.83312 1.211C5.71384 1.30615 5.58747 1.39207 5.45512 1.468C5.36599 1.51538 5.27257 1.55422 5.17612 1.584C5.06712 1.617 4.95412 1.634 4.72712 1.669L3.89712 1.796C3.24212 1.896 2.91412 1.947 2.65712 2.1C2.42712 2.235 2.23612 2.427 2.10012 2.657C1.94712 2.917 1.89712 3.245 1.79612 3.897L1.66912 4.727C1.63412 4.954 1.61712 5.068 1.58412 5.177C1.55412 5.27366 1.51545 5.36633 1.46812 5.455C1.41412 5.555 1.34712 5.648 1.21112 5.833L0.714119 6.51C0.322119 7.044 0.126119 7.311 0.0501195 7.6C-0.0154044 7.85824 -0.0154044 8.12876 0.0501195 8.387C0.125119 8.679 0.322119 8.947 0.714119 9.477L1.21112 10.154C1.34712 10.339 1.41512 10.432 1.46812 10.532C1.51479 10.6213 1.55345 10.7147 1.58412 10.812C1.61712 10.92 1.63412 11.033 1.66912 11.26L1.79612 12.09C1.89612 12.745 1.94712 13.072 2.10012 13.33C2.23512 13.56 2.42712 13.752 2.65712 13.887C2.91712 14.04 3.24512 14.09 3.89712 14.191L4.72712 14.318C4.95412 14.353 5.06812 14.371 5.17612 14.404C5.27279 14.4333 5.36579 14.472 5.45512 14.52C5.55512 14.573 5.64812 14.64 5.83312 14.777L6.51012 15.274C7.04412 15.666 7.31112 15.862 7.60012 15.938C7.85812 16.005 8.12912 16.005 8.38712 15.938C8.67912 15.862 8.94712 15.666 9.47712 15.274L10.1541 14.777C10.3391 14.641 10.4321 14.573 10.5321 14.52C10.6215 14.472 10.7145 14.4333 10.8111 14.404C10.9201 14.371 11.0331 14.354 11.2601 14.318L12.0901 14.191C12.7451 14.091 13.0721 14.041 13.3301 13.887C13.5601 13.752 13.7521 13.56 13.8871 13.33C14.0401 13.07 14.0901 12.742 14.1911 12.09L14.3181 11.26C14.3531 11.033 14.3701 10.92 14.4031 10.811C14.4331 10.7143 14.4718 10.6213 14.5191 10.532C14.5731 10.432 14.6401 10.339 14.7761 10.154L15.2731 9.477C15.6651 8.943 15.8611 8.677 15.9371 8.387C16.0026 8.12876 16.0026 7.85824 15.9371 7.6C15.8621 7.308 15.6651 7.04 15.2731 6.51L14.7761 5.833C14.681 5.71372 14.595 5.58735 14.5191 5.455C14.4717 5.36586 14.4329 5.27245 14.4031 5.176C14.3634 5.02871 14.335 4.87861 14.3181 4.727L14.1911 3.897C14.0911 3.242 14.0401 2.914 13.8871 2.657C13.7508 2.42781 13.5593 2.23634 13.3301 2.1C13.0701 1.947 12.7421 1.897 12.0901 1.796L11.2601 1.669C11.1085 1.65212 10.9584 1.62371 10.8111 1.584C10.7145 1.55482 10.621 1.51596 10.5321 1.468C10.3998 1.39207 10.2734 1.30615 10.1541 1.211L9.47712 0.713997C8.94312 0.321997 8.67612 0.125997 8.38712 0.0499974C8.12888 -0.0155265 7.85836 -0.0155265 7.60012 0.0499974C7.30812 0.125997 7.04012 0.321997 6.51012 0.713997ZM11.8401 6.124C11.898 6.0534 11.9411 5.97192 11.967 5.88437C11.9928 5.79682 12.0008 5.70498 11.9906 5.61427C11.9803 5.52356 11.952 5.43583 11.9073 5.35626C11.8625 5.27669 11.8023 5.20689 11.7301 5.151C11.5833 5.03615 11.3975 4.98316 11.2122 5.00333C11.0269 5.02351 10.8568 5.11524 10.7381 5.259L7.42812 9.319L5.65812 7.959C5.51353 7.84132 5.3287 7.78477 5.14302 7.8014C4.95735 7.81802 4.7855 7.90651 4.66412 8.048C4.60482 8.11739 4.56003 8.19796 4.53239 8.28496C4.50476 8.37196 4.49485 8.46361 4.50324 8.5545C4.51163 8.64539 4.53815 8.73368 4.58124 8.81415C4.62433 8.89462 4.68312 8.96563 4.75412 9.023L7.07412 10.833C7.22062 10.9522 7.40832 11.0085 7.59624 10.9898C7.78416 10.9711 7.95703 10.8787 8.07712 10.733L11.8371 6.113L11.8401 6.124Z" fill="#57CD98" style="fill:#57CD98;fill:color(display-p3 0.3400 0.8056 0.5961);fill-opacity:1;"/>
</g>
<defs>
<clipPath id="clip0_129_5341">
<rect width="16" height="16" fill="white" style="fill:white;fill-opacity:1;"/>
</clipPath>
</defs>
</svg>
