<svg width="24" height="24" viewBox="0 0 24 24" fill="none" xmlns="http://www.w3.org/2000/svg">
<path d="M21.0003 2H15.0003C14.4483 2 14.0003 2.448 14.0003 3C14.0003 3.552 14.4483 4 15.0003 4H18.5863L2.29328 20.293C2.10528 20.475 1.98828 20.73 1.98828 21.012C1.98828 21.564 2.43628 22.012 2.98828 22.012C3.27028 22.012 3.52528 21.895 3.70728 21.707L20.0003 5.414V9C20.0003 9.552 20.4483 10 21.0003 10C21.5523 10 22.0003 9.552 22.0003 9V3C22.0003 2.448 21.5523 2 21.0003 2Z" fill="#4A7452" style="fill:#4A7452;fill:color(display-p3 0.2916 0.4537 0.3204);fill-opacity:1;"/>
<path d="M9.5 6C9.5 7.933 7.933 9.5 6 9.5C4.067 9.5 2.5 7.933 2.5 6C2.5 4.067 4.067 2.5 6 2.5C7.933 2.5 9.5 4.067 9.5 6Z" fill="#B9BEC1" style="fill:#B9BEC1;fill:color(display-p3 0.7255 0.7451 0.7569);fill-opacity:1;"/>
<path d="M20.2327 14.359L15.9327 19.519L13.7067 17.293C13.5267 17.119 13.2817 17.012 13.0117 17.012C12.4597 17.012 12.0117 17.46 12.0117 18.012C12.0117 18.282 12.1187 18.527 12.2927 18.707L15.2927 21.707C15.4727 21.888 15.7217 22 15.9967 22C15.9987 22 15.9997 22 16.0017 22H16.0467C16.3377 21.986 16.5947 21.851 16.7697 21.643L16.7707 21.642L21.7707 15.642C21.9147 15.47 22.0027 15.246 22.0027 15.001C22.0027 14.448 21.5547 14 21.0017 14C20.6937 14 20.4167 14.139 20.2327 14.359Z" fill="#4A7452" style="fill:#4A7452;fill:color(display-p3 0.2916 0.4537 0.3204);fill-opacity:1;"/>
</svg>
