<svg width="138" height="18" viewBox="0 0 138 18" fill="none" xmlns="http://www.w3.org/2000/svg">
<path d="M7.52186 15.9941C2.01048 15.9941 0 12.4878 0 8.45102C0 4.41421 1.63408 0.0157692 7.83715 0.0157692C12.5438 0.0157692 14.5646 2.8238 14.5646 5.0214H11.5755C11.4178 3.83877 10.6747 2.68134 7.83715 2.68134C3.73504 2.68134 2.80128 5.42918 2.80128 8.45102C2.80128 11.4729 3.85713 13.3936 7.65699 13.3936C10.4044 13.3936 11.2437 11.4357 11.2437 10.8112H7.65699V8.42008H14.6322V15.8326H12.1385V13.5489C11.2827 15.0253 9.90899 15.9941 7.52186 15.9941Z" fill="#F8FAFB" style="fill:#F8FAFB;fill:color(display-p3 0.9725 0.9804 0.9843);fill-opacity:1;"/>
<path d="M20.5503 15.9164C16.7444 15.9164 16.0012 13.7712 16.0012 10.4264V4.06494H18.8327V10.6109C18.8327 12.7331 19.6824 13.3621 21.2259 13.3621C22.7243 13.3621 23.7091 12.6409 23.7091 10.4956V4.06494H26.6082V15.755H24.0443V14.048C23.6165 14.9015 23.1401 15.9164 20.5503 15.9164Z" fill="#F8FAFB" style="fill:#F8FAFB;fill:color(display-p3 0.9725 0.9804 0.9843);fill-opacity:1;"/>
<path d="M34.9888 15.8472C31.1829 16.0779 29.584 15.1552 29.584 12.364V6.40644H27.94V4.06494H29.584V0H32.3929V4.06494H35.9225L34.9888 6.40644H32.4605V12.364C32.4605 13.4713 33.4228 13.5005 34.9888 13.3852V15.8472Z" fill="#F8FAFB" style="fill:#F8FAFB;fill:color(display-p3 0.9725 0.9804 0.9843);fill-opacity:1;"/>
<path d="M40.2574 15.9164C37.7802 15.9164 36.1587 14.4204 36.1587 11.9291C36.1587 9.7608 37.3504 8.60811 40.4886 8.60811C42.1461 8.60811 43.754 8.60811 43.754 8.60811C43.6865 7.14867 43.1864 6.45608 41.6926 6.40644C40.6186 6.37076 39.4514 6.6952 39.4514 7.62509H36.8759C36.8759 5.65817 38.0834 4.06494 41.6701 4.06494C45.443 4.06494 46.688 5.85901 46.688 9.04233V15.755H44.1202V13.9788C43.5797 14.9015 42.6445 15.9164 40.2574 15.9164ZM38.7511 11.9291C38.7511 13.0133 39.6433 13.3852 40.8654 13.3852C42.2512 13.3852 43.754 12.9165 43.754 10.8635V10.4945C43.754 10.4945 42.2527 10.4945 40.9555 10.4945C39.4514 10.4945 38.7511 11.0064 38.7511 11.9291Z" fill="#F8FAFB" style="fill:#F8FAFB;fill:color(display-p3 0.9725 0.9804 0.9843);fill-opacity:1;"/>
<path d="M53.7062 15.9164C49.1572 15.9164 48.3732 13.4914 48.1971 10.3279C48.0112 6.9902 49.2022 4.06494 53.6612 4.06494C57.1743 4.06494 58.7336 5.65547 58.7336 8.60811H56.1388C55.9812 7.26401 55.1386 6.6952 53.6913 6.6952C51.6809 6.6952 51.1186 8.02117 51.1186 10.3048C51.1186 12.0642 52.0277 13.316 53.6387 13.316C55.086 13.316 55.9812 12.8254 56.1388 11.5966H58.7336C58.7336 14.0249 57.2419 15.9164 53.7062 15.9164Z" fill="#F8FAFB" style="fill:#F8FAFB;fill:color(display-p3 0.9725 0.9804 0.9843);fill-opacity:1;"/>
<path d="M60.0459 15.755V0H62.8774V5.42073C63.3278 4.56723 64.3412 4.06494 66.0812 4.06494C69.8421 4.06494 70.6078 5.97435 70.6078 9.36527V15.755H67.7538V9.1346C67.7538 7.87657 67.3935 6.33724 65.4056 6.33724C63.9072 6.33724 62.9224 6.89705 62.9224 9.1346L62.8774 15.755H60.0459Z" fill="#F8FAFB" style="fill:#F8FAFB;fill:color(display-p3 0.9725 0.9804 0.9843);fill-opacity:1;"/>
<path d="M84.8583 15.9164C80.2192 15.9164 79.0707 12.9869 79.0707 9.82662C79.0707 6.66638 80.845 4.06494 84.5054 4.06494C88.2948 4.06494 90.038 6.45608 89.5711 10.4945H82.0373C82.0373 12.6731 83.1047 13.316 84.9722 13.316C86.1394 13.316 86.8398 12.9122 87.0488 12.1334H89.5711C89.3684 14.1402 88.007 15.9164 84.8583 15.9164ZM82.0598 8.60811H86.8398C86.8623 7.47161 86.11 6.40644 84.5054 6.40644C83.1871 6.40644 82.1724 6.87805 82.0598 8.60811Z" fill="#F8FAFB" style="fill:#F8FAFB;fill:color(display-p3 0.9725 0.9804 0.9843);fill-opacity:1;"/>
<path d="M102.947 15.755V12.9407H106.238V15.755H102.947Z" fill="#F8FAFB" style="fill:#F8FAFB;fill:color(display-p3 0.9725 0.9804 0.9843);fill-opacity:1;"/>
<path d="M112.771 15.9164C108.244 15.9164 107.073 12.9869 107.073 9.84969C107.073 6.73558 108.267 3.78294 112.793 3.78294C117.275 3.78294 118.513 6.73558 118.513 9.84969C118.513 13.0099 117.275 15.9164 112.771 15.9164ZM109.995 9.84969C109.995 11.609 110.58 13.3904 112.771 13.3904C115.006 13.3904 115.592 11.6551 115.592 9.84969C115.592 8.13651 115.051 6.35357 112.793 6.35357C110.58 6.35357 109.995 8.11344 109.995 9.84969Z" fill="#F8FAFB" style="fill:#F8FAFB;fill:color(display-p3 0.9725 0.9804 0.9843);fill-opacity:1;"/>
<path d="M119.961 15.755V3.78294H122.556V5.5822C123.254 4.05975 123.857 3.64454 125.906 3.78294V6.35357C123.49 6.35357 122.837 6.75865 122.837 9.52674V15.755H119.961Z" fill="#F8FAFB" style="fill:#F8FAFB;fill:color(display-p3 0.9725 0.9804 0.9843);fill-opacity:1;"/>
<path d="M134.462 17.2162C134.462 16.4666 134.161 16.1797 132.127 16.2598C128.027 16.4212 126.058 16.1856 126.058 13.6295C126.058 12.5453 126.913 11.5105 128.197 11.2107C126.891 10.5186 126.463 9.41141 126.463 8.07349C126.463 3.94441 130.607 3.78294 132.116 3.78294H137.543V6.35357H135.746C136.213 6.59268 136.845 7.21381 136.845 8.4195C136.845 10.5648 135.899 12.2026 131.8 12.3179C129.413 12.3871 129.009 12.8542 129.092 13.3904C129.234 14.295 131.079 13.7285 132.138 13.6295C134.695 13.3904 137.73 13.7832 137.73 17.2162H134.462ZM129.385 8.23496C129.385 9.07158 130.324 9.80368 131.643 9.80368C132.893 9.80368 133.878 9.11772 133.878 8.16576C133.878 7.37528 133.428 6.35357 131.643 6.35357C129.88 6.35357 129.385 7.35221 129.385 8.23496Z" fill="#F8FAFB" style="fill:#F8FAFB;fill:color(display-p3 0.9725 0.9804 0.9843);fill-opacity:1;"/>
<path d="M78.4359 15.8472C74.63 16.0779 73.0311 15.1552 73.0311 12.364V6.40644H71.3871V4.06494H73.0311V0H75.8401V4.06494H79.3697L78.4359 6.40644H75.9076V12.364C75.9076 13.4713 76.87 13.5005 78.4359 13.3852V15.8472Z" fill="#F8FAFB" style="fill:#F8FAFB;fill:color(display-p3 0.9725 0.9804 0.9843);fill-opacity:1;"/>
<path d="M97.0996 4.06494C100.439 4.06494 101.649 5.94454 101.649 9.28932V15.7713H98.8172V9.10479C98.8172 6.98258 97.9674 6.35357 96.424 6.35357C94.9256 6.35357 93.9407 7.07485 93.9407 9.22013V15.7713L91.0417 15.7713V3.96074H93.6055V5.66773C94.0334 4.81424 94.5098 4.06494 97.0996 4.06494Z" fill="#F8FAFB" style="fill:#F8FAFB;fill:color(display-p3 0.9725 0.9804 0.9843);fill-opacity:1;"/>
</svg>
