<svg width="591" height="533" viewBox="0 0 591 533" fill="none" xmlns="http://www.w3.org/2000/svg">
<path d="M293.278 2.02957C296.621 -0.211456 301.09 -0.137691 304.35 2.21414L539.271 171.668C544.146 175.185 544.311 182.15 539.602 185.873L470.846 240.237C467.471 242.905 462.626 242.997 459.143 240.46L303.822 127.347C300.862 125.192 296.789 125.089 293.715 127.095L104.318 250.695C101.959 252.234 100.554 254.785 100.554 257.504V494.05C100.554 498.589 104.404 502.297 109.189 502.297H304.809C306.733 502.297 308.601 501.683 310.117 500.555L425.817 414.423C428.192 412.655 426.934 408.953 423.836 408.952H335.006C329.815 408.952 325.576 404.92 325.576 399.909V330.744C325.576 325.734 329.815 321.702 335.006 321.701H580.763C585.955 321.701 590.195 325.734 590.195 330.744V589.151C590.195 594.162 585.955 598.195 580.763 598.195H499.867C494.675 598.194 490.436 594.161 490.436 589.151V489.066C490.436 486.506 487.288 485.034 485.167 486.711L346.791 596.128C345.1 597.465 342.978 598.195 340.791 598.195H9.82959C4.6476 598.195 0.398109 594.328 0.397949 589.308V202.971C0.397949 200.009 1.90931 197.318 4.42627 195.631L293.278 2.02957Z" fill="#273238" stroke="url(#paint0_linear_129_5338)" style="fill:#273238;fill:color(display-p3 0.1529 0.1961 0.2196);fill-opacity:1;" stroke-width="0.79617"/>
<defs>
<linearGradient id="paint0_linear_129_5338" x1="847.796" y1="-63.2038" x2="293.771" y2="596.515" gradientUnits="userSpaceOnUse">
<stop stop-color="white" style="stop-color:white;stop-opacity:1;"/>
<stop offset="1" stop-color="white" stop-opacity="0" style="stop-color:none;stop-opacity:0;"/>
</linearGradient>
</defs>
</svg>
