<svg width="21" height="22" viewBox="0 0 21 22" fill="none" xmlns="http://www.w3.org/2000/svg">
<path d="M0 7.45033C0 7.34638 0.0512543 7.25166 0.13732 7.19203L10.4359 0.0576242C10.5502 -0.0215528 10.7031 -0.0189131 10.8145 0.0641626L19.1903 6.30869C19.3565 6.43261 19.362 6.67761 19.2016 6.80875L16.7502 8.81208C16.6349 8.90633 16.4691 8.90961 16.3501 8.82L10.8123 4.65164C10.702 4.56862 10.5504 4.56472 10.4359 4.64195L3.68317 9.1967C3.59518 9.25605 3.54254 9.35459 3.54254 9.45994V18.1768C3.54254 18.3528 3.68673 18.4954 3.86459 18.4954H10.8392C10.9108 18.4954 10.9804 18.4718 11.0369 18.4283L15.162 15.2543C15.2588 15.1798 15.2056 15.0263 15.0829 15.0263H11.9158C11.738 15.0263 11.5938 14.8836 11.5938 14.7077V12.1589C11.5938 11.983 11.738 11.8403 11.9158 11.8403H20.6779C20.8558 11.8403 21 11.983 21 12.1589V21.6814C21 21.8574 20.8558 22 20.6779 22H17.7937C17.6158 22 17.4716 21.8574 17.4716 21.6814V17.9932C17.4716 17.8854 17.3448 17.8263 17.2608 17.8949L12.3272 21.927C12.2694 21.9742 12.1969 22 12.122 22H0.322049C0.144187 22 0 21.8631 0 21.6872C0 20.0234 0 12.1138 0 7.45033Z" fill="#F8FAFB" style="fill:#F8FAFB;fill:color(display-p3 0.9725 0.9804 0.9843);fill-opacity:1;"/>
</svg>
