<svg width="52" height="55" viewBox="0 0 52 55" fill="none" xmlns="http://www.w3.org/2000/svg">
<path d="M0 18.3717C0 18.1153 0.126387 17.8818 0.338615 17.7347L25.7338 0.142095C26.0157 -0.0531467 26.3925 -0.0466374 26.6673 0.158218L47.3211 15.5565C47.7309 15.8621 47.7446 16.4662 47.3489 16.7896L41.3041 21.7296C41.0197 21.962 40.611 21.9701 40.3175 21.7491L26.6619 11.4704C26.3899 11.2657 26.016 11.2561 25.7337 11.4465L9.08227 22.678C8.86531 22.8244 8.7355 23.0673 8.7355 23.3271V44.822C8.7355 45.2559 9.09104 45.6076 9.52963 45.6076H26.7282C26.9048 45.6076 27.0763 45.5494 27.2157 45.4422L37.3877 37.6154C37.6265 37.4317 37.4952 37.0531 37.1927 37.0531H29.383C28.9444 37.0531 28.5889 36.7014 28.5889 36.2675V29.9825C28.5889 29.5486 28.9444 29.1969 29.383 29.1969H50.9895C51.428 29.1969 51.7836 29.5486 51.7836 29.9825V53.4639C51.7836 53.8977 51.428 54.2495 50.9895 54.2495H43.8772C43.4386 54.2495 43.0831 53.8978 43.0831 53.4639V44.3691C43.0831 44.1033 42.7702 43.9575 42.5631 44.1268L30.3974 54.0695C30.255 54.1859 30.0762 54.2495 29.8916 54.2495H0.794137C0.355547 54.2495 0 53.912 0 53.4781C0 49.3755 0 29.8714 0 18.3717Z" fill="#F8FAFB" style="fill:#F8FAFB;fill:color(display-p3 0.9725 0.9804 0.9843);fill-opacity:1;"/>
</svg>
