<svg width="39" height="40" viewBox="0 0 39 40" fill="none" xmlns="http://www.w3.org/2000/svg">
<path d="M0 13.5461C0 13.3571 0.0930713 13.1848 0.249355 13.0764L18.9503 0.104771C19.1579 -0.0391869 19.4354 -0.0343874 19.6377 0.116659L34.8471 11.4703C35.149 11.6956 35.159 12.1411 34.8676 12.3795L30.4162 16.022C30.2068 16.1933 29.9059 16.1993 29.6897 16.0364L19.6338 8.45753C19.4335 8.30657 19.1582 8.29948 18.9502 8.43992L6.68816 16.7213C6.52839 16.8292 6.4328 17.0083 6.4328 17.1999V33.0488C6.4328 33.3687 6.69463 33.6281 7.0176 33.6281H19.6826C19.8126 33.6281 19.9389 33.5851 20.0416 33.5061L27.5323 27.7351C27.7081 27.5997 27.6114 27.3205 27.3886 27.3205H21.6376C21.3146 27.3205 21.0528 27.0612 21.0528 26.7413V22.1071C21.0528 21.7872 21.3146 21.5279 21.6376 21.5279H37.5485C37.8715 21.5279 38.1333 21.7872 38.1333 22.1071V39.4207C38.1333 39.7407 37.8715 40 37.5485 40H32.3111C31.9881 40 31.7263 39.7407 31.7263 39.4207V32.7149C31.7263 32.5189 31.4959 32.4114 31.3434 32.5362L22.3846 39.8673C22.2797 39.9531 22.148 40 22.0121 40H0.584801C0.261824 40 0 39.7512 0 39.4313C0 36.4062 0 22.0252 0 13.5461Z" fill="#FF985C" style="fill:#FF985C;fill:color(display-p3 1.0000 0.5947 0.3600);fill-opacity:1;"/>
</svg>
